<?xml version="1.0" encoding="UTF-8"?>
<!DOCTYPE svg PUBLIC "-//W3C//DTD SVG 1.1//EN" "http://www.w3.org/Graphics/SVG/1.1/DTD/svg11.dtd">
<svg xmlns="http://www.w3.org/2000/svg" version="1.1" width="750px" height="750px" style="shape-rendering:geometricPrecision; text-rendering:geometricPrecision; image-rendering:optimizeQuality; fill-rule:evenodd; clip-rule:evenodd" xmlns:xlink="http://www.w3.org/1999/xlink">
<g><path style="opacity:0.997" fill="#92715d" d="M 587.5,202.5 C 573.516,207.04 559.182,208.873 544.5,208C 532.206,203.901 520.04,199.401 508,194.5C 488.272,187.985 468.106,184.652 447.5,184.5C 356.341,184.83 283.508,221.163 229,293.5C 197.42,338.083 182.92,387.75 185.5,442.5C 186.649,456.079 189.149,469.413 193,482.5C 199.448,499.397 206.448,516.063 214,532.5C 215.995,545.249 215.495,557.916 212.5,570.5C 210.947,573.935 209.114,577.268 207,580.5C 202.621,584.277 198.954,588.61 196,593.5C 173.3,617.199 150.966,641.199 129,665.5C 122.993,672.848 115.827,678.681 107.5,683C 83.2493,689.957 66.416,681.791 57,658.5C 56.3711,655.689 55.8711,652.856 55.5,650C 64.5443,611.489 74.2109,573.156 84.5,535C 82.4107,519.625 79.9107,504.125 77,488.5C 75.3361,454.444 76.3361,420.444 80,386.5C 95.7064,285.2 144.873,204.7 227.5,145C 291.282,100.462 362.282,76.962 440.5,74.5C 473.955,73.1637 507.122,75.8304 540,82.5C 576.63,73.3426 613.296,64.3426 650,55.5C 666.538,57.3721 677.871,66.0387 684,81.5C 686.856,94.0312 684.856,105.698 678,116.5C 648.784,143.718 620.284,171.551 592.5,200C 590.807,200.847 589.14,201.68 587.5,202.5 Z"/></g>
<g><path style="opacity:0.983" fill="#d1d1d1" d="M 587.5,202.5 C 477.697,312.135 367.031,420.969 255.5,529C 242.242,544.094 227.908,557.928 212.5,570.5C 215.495,557.916 215.995,545.249 214,532.5C 206.448,516.063 199.448,499.397 193,482.5C 189.149,469.413 186.649,456.079 185.5,442.5C 245.276,383.226 305.609,324.393 366.5,266C 393.723,238.944 420.723,211.778 447.5,184.5C 468.106,184.652 488.272,187.985 508,194.5C 520.04,199.401 532.206,203.901 544.5,208C 559.182,208.873 573.516,207.04 587.5,202.5 Z"/></g>
</svg>
