<?xml version="1.0" encoding="UTF-8"?>
<!DOCTYPE svg PUBLIC "-//W3C//DTD SVG 1.1//EN" "http://www.w3.org/Graphics/SVG/1.1/DTD/svg11.dtd">
<svg xmlns="http://www.w3.org/2000/svg" version="1.1" width="750px" height="750px" style="shape-rendering:geometricPrecision; text-rendering:geometricPrecision; image-rendering:optimizeQuality; fill-rule:evenodd; clip-rule:evenodd" xmlns:xlink="http://www.w3.org/1999/xlink">
<g><path style="opacity:0.992" fill="#e8e8e8" d="M 367.5,146.5 C 367.389,147.117 367.056,147.617 366.5,148C 368.915,152.242 370.749,156.742 372,161.5C 386.343,216.444 377.676,267.444 346,314.5C 335.859,326.814 324.359,337.481 311.5,346.5C 276.522,368.264 238.522,376.43 197.5,371C 184.073,367.801 170.74,364.301 157.5,360.5C 147.82,356.825 138.82,351.825 130.5,345.5C 129.482,346.193 128.482,346.859 127.5,347.5C 104.608,337.147 81.9416,326.313 59.5,315C 49.4902,304.617 47.3235,292.783 53,279.5C 59.5902,269.954 68.7568,265.288 80.5,265.5C 102.578,266.373 124.745,267.707 147,269.5C 150.765,268.911 154.599,269.244 158.5,270.5C 165.751,270.294 173.084,270.294 180.5,270.5C 181.59,245.837 182.756,221.171 184,196.5C 186.753,186.081 193.253,179.247 203.5,176C 226.517,175.629 249.517,176.129 272.5,177.5C 271.2,146.309 269.534,115.142 267.5,84C 270.403,63.4212 282.069,54.7546 302.5,58C 309.725,60.1927 315.892,64.026 321,69.5C 337.025,94.89 352.525,120.557 367.5,146.5 Z"/></g>
<g><path style="opacity:0.999" fill="#8e658c" d="M 586.5,207.5 C 586.196,208.15 585.863,208.817 585.5,209.5C 592.795,231.397 596.128,253.897 595.5,277C 594.986,320.892 586.153,363.059 569,403.5C 534.416,486.225 479.916,552.392 405.5,602C 369.111,625.24 329.278,638.073 286,640.5C 273.824,640.046 261.824,638.38 250,635.5C 248.862,635.989 247.695,636.322 246.5,636.5C 164.922,585.447 122.256,511.447 118.5,414.5C 118.791,402.093 119.791,389.759 121.5,377.5C 122.158,378.793 122.492,380.293 122.5,382C 121.628,388.174 121.128,394.341 121,400.5C 177.438,431.4 235.938,435.9 296.5,414C 379.529,377.857 424.029,314.357 430,223.5C 430.99,197.75 427.157,172.75 418.5,148.5C 404.019,146.842 389.686,146.175 375.5,146.5C 447.024,139.964 512.69,156.464 572.5,196C 577.647,199.32 582.314,203.153 586.5,207.5 Z"/></g>
<g><path style="opacity:1" fill="#7f5a97" d="M 367.5,146.5 C 370.167,146.5 372.833,146.5 375.5,146.5C 389.686,146.175 404.019,146.842 418.5,148.5C 427.157,172.75 430.99,197.75 430,223.5C 424.029,314.357 379.529,377.857 296.5,414C 235.938,435.9 177.438,431.4 121,400.5C 121.128,394.341 121.628,388.174 122.5,382C 122.492,380.293 122.158,378.793 121.5,377.5C 123.116,367.42 125.116,357.42 127.5,347.5C 128.482,346.859 129.482,346.193 130.5,345.5C 138.82,351.825 147.82,356.825 157.5,360.5C 197.382,378.829 238.049,380.329 279.5,365C 291.343,360.588 302.009,354.421 311.5,346.5C 324.359,337.481 335.859,326.814 346,314.5C 377.676,267.444 386.343,216.444 372,161.5C 370.749,156.742 368.915,152.242 366.5,148C 367.056,147.617 367.389,147.117 367.5,146.5 Z"/></g>
<g><path style="opacity:1" fill="#75548a" d="M 586.5,207.5 C 642.825,251.441 675.992,309.108 686,380.5C 693.257,492.489 649.757,578.323 555.5,638C 473.174,684.69 387.174,692.69 297.5,662C 279.323,655.578 262.323,647.078 246.5,636.5C 247.695,636.322 248.862,635.989 250,635.5C 261.824,638.38 273.824,640.046 286,640.5C 329.278,638.073 369.111,625.24 405.5,602C 479.916,552.392 534.416,486.225 569,403.5C 586.153,363.059 594.986,320.892 595.5,277C 596.128,253.897 592.795,231.397 585.5,209.5C 585.863,208.817 586.196,208.15 586.5,207.5 Z"/></g>
<g><path style="opacity:0.004" fill="#000000" d="M 97.5,214.5 C 98.8333,215.167 98.8333,215.167 97.5,214.5 Z"/></g>
<g><path style="opacity:1" fill="#8e658d" d="M 311.5,346.5 C 302.009,354.421 291.343,360.588 279.5,365C 238.049,380.329 197.382,378.829 157.5,360.5C 170.74,364.301 184.073,367.801 197.5,371C 238.522,376.43 276.522,368.264 311.5,346.5 Z"/></g>
</svg>
