<?xml version="1.0" encoding="UTF-8"?>
<!DOCTYPE svg PUBLIC "-//W3C//DTD SVG 1.1//EN" "http://www.w3.org/Graphics/SVG/1.1/DTD/svg11.dtd">
<svg xmlns="http://www.w3.org/2000/svg" version="1.1" width="750px" height="750px" style="shape-rendering:geometricPrecision; text-rendering:geometricPrecision; image-rendering:optimizeQuality; fill-rule:evenodd; clip-rule:evenodd" xmlns:xlink="http://www.w3.org/1999/xlink">
<g><path style="opacity:0.999" fill="#db441a" d="M 634.5,234.5 C 633.5,234.5 632.5,234.5 631.5,234.5C 630.283,247.4 628.95,260.233 627.5,273C 628.056,273.383 628.389,273.883 628.5,274.5C 613.371,283.651 598.038,292.318 582.5,300.5C 575.824,303.166 569.824,306.833 564.5,311.5C 559.449,314.253 554.449,316.92 549.5,319.5C 543.134,321.203 537.468,324.203 532.5,328.5C 531.127,328.343 529.793,328.51 528.5,329C 526.308,330.067 524.642,331.567 523.5,333.5C 521.5,334.167 519.5,334.833 517.5,335.5C 513.317,337.087 509.65,339.421 506.5,342.5C 504.847,342.66 503.514,343.326 502.5,344.5C 499.593,344.575 496.927,345.409 494.5,347C 490.707,348.97 487.373,351.47 484.5,354.5C 483.127,354.343 481.793,354.51 480.5,355C 473.601,358.941 466.934,363.108 460.5,367.5C 457.515,368.326 454.849,369.659 452.5,371.5C 447.819,371.891 444.152,373.891 441.5,377.5C 439.847,377.66 438.514,378.326 437.5,379.5C 436.127,379.343 434.793,379.51 433.5,380C 431.308,381.067 429.642,382.567 428.5,384.5C 423.937,386.286 419.604,388.286 415.5,390.5C 411.821,391.374 408.488,392.874 405.5,395C 403.308,396.067 401.642,397.567 400.5,399.5C 397.284,400.938 393.951,402.105 390.5,403C 388.308,404.067 386.642,405.567 385.5,407.5C 377.208,409.776 369.541,413.442 362.5,418.5C 357.522,419.82 352.855,421.987 348.5,425C 346.5,425.667 344.5,425.667 342.5,425C 334.92,419.723 327.586,414.223 320.5,408.5C 318.407,402.055 314.073,398.722 307.5,398.5C 299.892,393.019 292.225,387.519 284.5,382C 273.644,373.302 262.977,364.469 252.5,355.5C 251.055,352.882 249.389,350.382 247.5,348C 244.324,347.111 241.324,345.945 238.5,344.5C 224.729,334.575 211.062,324.408 197.5,314C 188.376,306.784 179.709,299.117 171.5,291C 165.198,288.534 159.865,284.701 155.5,279.5C 150.443,273.441 144.776,268.107 138.5,263.5C 136.973,263.573 135.973,262.906 135.5,261.5C 134.016,259.926 132.349,258.593 130.5,257.5C 129.878,256.373 129.045,255.373 128,254.5C 127.829,247.321 127.329,240.321 126.5,233.5C 126.509,231.692 126.009,230.025 125,228.5C 124.014,227.829 122.847,227.829 121.5,228.5C 121.812,206.473 121.479,184.473 120.5,162.5C 120.558,151.111 125.225,142.278 134.5,136C 139.833,132.667 145.167,129.333 150.5,126C 231.979,87.4259 312.979,48.0926 393.5,8C 400.918,4.91694 408.252,4.91694 415.5,8C 428.833,18.6667 442.167,29.3333 455.5,40C 500.435,69.6476 543.435,101.981 584.5,137C 598.858,146.354 612.358,156.854 625,168.5C 630.12,174.188 633.12,180.855 634,188.5C 634.5,203.83 634.667,219.163 634.5,234.5 Z"/></g>
<g><path style="opacity:0.984" fill="#8d8d8d" d="M 126.5,233.5 C 126.334,240.841 126.5,248.174 127,255.5C 127.717,256.044 128.217,256.711 128.5,257.5C 127.761,257.369 127.094,257.536 126.5,258C 127.191,259.067 127.691,260.234 128,261.5C 128.5,278.163 128.667,294.83 128.5,311.5C 127.127,311.657 125.793,311.49 124.5,311C 113.606,301.54 102.272,292.54 90.5,284C 87.527,281.027 84.527,278.027 81.5,275C 75.6228,271.798 70.2894,267.798 65.5,263C 64.552,262.517 63.552,262.351 62.5,262.5C 62.5,261.167 62.5,259.833 62.5,258.5C 61.5,258.5 60.5,258.5 59.5,258.5C 80.4343,249.033 101.101,239.033 121.5,228.5C 122.847,227.829 124.014,227.829 125,228.5C 126.009,230.025 126.509,231.692 126.5,233.5 Z"/></g>
<g><path style="opacity:0.979" fill="#8d8c8c" d="M 634.5,234.5 C 651.542,244.681 668.209,255.348 684.5,266.5C 682.83,267.871 682.164,269.371 682.5,271C 670.938,276.282 659.605,281.782 648.5,287.5C 643.137,290.016 638.137,293.183 633.5,297C 631.866,297.494 630.199,297.66 628.5,297.5C 628.942,291.161 628.275,284.994 626.5,279C 628.107,277.951 628.773,276.451 628.5,274.5C 628.389,273.883 628.056,273.383 627.5,273C 628.95,260.233 630.283,247.4 631.5,234.5C 632.5,234.5 633.5,234.5 634.5,234.5 Z"/></g>
<g><path style="opacity:1" fill="#c0674f" d="M 126.5,233.5 C 127.329,240.321 127.829,247.321 128,254.5C 129.045,255.373 129.878,256.373 130.5,257.5C 129.833,257.5 129.167,257.5 128.5,257.5C 128.217,256.711 127.717,256.044 127,255.5C 126.5,248.174 126.334,240.841 126.5,233.5 Z"/></g>
<g><path style="opacity:1" fill="#ababab" d="M 128.5,257.5 C 129.167,257.5 129.833,257.5 130.5,257.5C 132.349,258.593 134.016,259.926 135.5,261.5C 133.738,261.643 132.071,261.309 130.5,260.5C 129.334,278.491 129.167,296.491 130,314.5C 192.591,364.547 255.091,414.713 317.5,465C 320.702,464.914 323.702,463.914 326.5,462C 364.106,442.035 401.439,421.702 438.5,401C 449.476,395.192 460.476,389.692 471.5,384.5C 438.332,493.016 404.998,601.516 371.5,710C 371.833,710.5 372.167,711 372.5,711.5C 373.417,710.873 374.417,710.539 375.5,710.5C 366.066,717.394 356.066,723.56 345.5,729C 337.743,734.945 329.41,739.778 320.5,743.5C 317.309,742.825 314.309,741.658 311.5,740C 275.702,709.196 239.035,679.529 201.5,651C 151.956,610.454 102.123,570.287 52,530.5C 50.1753,527.689 48.842,524.689 48,521.5C 47.6667,515.5 47.3333,509.5 47,503.5C 46.6691,428.969 45.8358,354.469 44.5,280C 44.9912,269.677 49.9912,262.511 59.5,258.5C 60.5,258.5 61.5,258.5 62.5,258.5C 62.5,259.833 62.5,261.167 62.5,262.5C 63.552,262.351 64.552,262.517 65.5,263C 70.2894,267.798 75.6228,271.798 81.5,275C 84.527,278.027 87.527,281.027 90.5,284C 102.272,292.54 113.606,301.54 124.5,311C 125.793,311.49 127.127,311.657 128.5,311.5C 128.667,294.83 128.5,278.163 128,261.5C 127.691,260.234 127.191,259.067 126.5,258C 127.094,257.536 127.761,257.369 128.5,257.5 Z"/></g>
<g><path style="opacity:1" fill="#eeeded" d="M 135.5,261.5 C 135.973,262.906 136.973,263.573 138.5,263.5C 143.557,269.559 149.224,274.893 155.5,279.5C 159.865,284.701 165.198,288.534 171.5,291C 179.709,299.117 188.376,306.784 197.5,314C 211.062,324.408 224.729,334.575 238.5,344.5C 241.043,347.78 244.043,350.613 247.5,353C 249.078,354.094 250.745,354.928 252.5,355.5C 262.977,364.469 273.644,373.302 284.5,382C 292.225,387.519 299.892,393.019 307.5,398.5C 308.625,400.129 309.959,401.629 311.5,403C 314.222,405.358 317.222,407.191 320.5,408.5C 327.586,414.223 334.92,419.723 342.5,425C 344.5,425.667 346.5,425.667 348.5,425C 352.855,421.987 357.522,419.82 362.5,418.5C 368.003,416.259 373.67,414.259 379.5,412.5C 381.531,410.825 383.531,409.159 385.5,407.5C 386.642,405.567 388.308,404.067 390.5,403C 393.951,402.105 397.284,400.938 400.5,399.5C 406.365,397.785 411.365,394.785 415.5,390.5C 419.604,388.286 423.937,386.286 428.5,384.5C 431.992,383.59 434.992,381.924 437.5,379.5C 438.514,378.326 439.847,377.66 441.5,377.5C 445.727,376.226 449.394,374.226 452.5,371.5C 454.849,369.659 457.515,368.326 460.5,367.5C 461.873,367.657 463.207,367.49 464.5,367C 471.408,363.055 478.075,358.888 484.5,354.5C 491.407,352.452 497.407,349.119 502.5,344.5C 503.514,343.326 504.847,342.66 506.5,342.5C 511.026,341.41 514.692,339.077 517.5,335.5C 519.5,334.833 521.5,334.167 523.5,333.5C 526.992,332.59 529.992,330.924 532.5,328.5C 535.425,328.54 538.091,327.707 540.5,326C 543.52,323.827 546.52,321.66 549.5,319.5C 554.449,316.92 559.449,314.253 564.5,311.5C 567.816,310.11 571.15,308.61 574.5,307C 577.441,305.048 580.107,302.882 582.5,300.5C 598.038,292.318 613.371,283.651 628.5,274.5C 628.773,276.451 628.107,277.951 626.5,279C 628.275,284.994 628.942,291.161 628.5,297.5C 628.631,298.376 628.298,299.043 627.5,299.5C 614.402,306.467 601.735,313.967 589.5,322C 585.277,323.944 580.944,325.611 576.5,327C 550.251,341.491 522.918,356.158 494.5,371C 490.503,373.245 487.003,376.078 484,379.5C 478.702,378.229 474.535,379.896 471.5,384.5C 460.476,389.692 449.476,395.192 438.5,401C 401.439,421.702 364.106,442.035 326.5,462C 323.702,463.914 320.702,464.914 317.5,465C 255.091,414.713 192.591,364.547 130,314.5C 129.167,296.491 129.334,278.491 130.5,260.5C 132.071,261.309 133.738,261.643 135.5,261.5 Z"/></g>
<g><path style="opacity:1" fill="#e3876d" d="M 138.5,263.5 C 144.776,268.107 150.443,273.441 155.5,279.5C 149.224,274.893 143.557,269.559 138.5,263.5 Z"/></g>
<g><path style="opacity:1" fill="#ababab" d="M 684.5,266.5 C 699.4,271.788 705.066,282.288 701.5,298C 702.968,326.992 703.301,355.992 702.5,385C 703.15,425.334 703.817,465.667 704.5,506C 707.544,519.923 703.877,531.59 693.5,541C 678.625,548.937 663.625,556.604 648.5,564C 635.461,572.186 622.128,579.853 608.5,587C 601.653,588.727 594.986,591.061 588.5,594C 583.666,597.252 578.666,600.252 573.5,603C 572.167,604.667 570.833,606.333 569.5,608C 562.021,611.994 554.688,616.161 547.5,620.5C 581.583,510.081 615.583,399.581 649.5,289C 649.43,288.235 649.097,287.735 648.5,287.5C 659.605,281.782 670.938,276.282 682.5,271C 682.164,269.371 682.83,267.871 684.5,266.5 Z"/></g>
<g><path style="opacity:1" fill="#bcbcbc" d="M 648.5,287.5 C 649.097,287.735 649.43,288.235 649.5,289C 615.583,399.581 581.583,510.081 547.5,620.5C 524.953,631.441 502.62,642.941 480.5,655C 470.92,661.625 460.586,666.958 449.5,671C 431.653,682.093 413.319,692.426 394.5,702C 388.371,705.4 382.037,708.234 375.5,710.5C 374.417,710.539 373.417,710.873 372.5,711.5C 372.167,711 371.833,710.5 371.5,710C 404.998,601.516 438.332,493.016 471.5,384.5C 474.535,379.896 478.702,378.229 484,379.5C 487.003,376.078 490.503,373.245 494.5,371C 522.918,356.158 550.251,341.491 576.5,327C 580.944,325.611 585.277,323.944 589.5,322C 601.735,313.967 614.402,306.467 627.5,299.5C 628.298,299.043 628.631,298.376 628.5,297.5C 630.199,297.66 631.866,297.494 633.5,297C 638.137,293.183 643.137,290.016 648.5,287.5 Z"/></g>
<g><path style="opacity:1" fill="#e79f8b" d="M 582.5,300.5 C 580.107,302.882 577.441,305.048 574.5,307C 571.15,308.61 567.816,310.11 564.5,311.5C 569.824,306.833 575.824,303.166 582.5,300.5 Z"/></g>
<g><path style="opacity:1" fill="#e9b5a7" d="M 549.5,319.5 C 546.52,321.66 543.52,323.827 540.5,326C 538.091,327.707 535.425,328.54 532.5,328.5C 537.468,324.203 543.134,321.203 549.5,319.5 Z"/></g>
<g><path style="opacity:1" fill="#e79e8a" d="M 532.5,328.5 C 529.992,330.924 526.992,332.59 523.5,333.5C 524.642,331.567 526.308,330.067 528.5,329C 529.793,328.51 531.127,328.343 532.5,328.5 Z"/></g>
<g><path style="opacity:1" fill="#e69b86" d="M 517.5,335.5 C 514.692,339.077 511.026,341.41 506.5,342.5C 509.65,339.421 513.317,337.087 517.5,335.5 Z"/></g>
<g><path style="opacity:1" fill="#e06845" d="M 238.5,344.5 C 241.324,345.945 244.324,347.111 247.5,348C 249.389,350.382 251.055,352.882 252.5,355.5C 250.745,354.928 249.078,354.094 247.5,353C 244.043,350.613 241.043,347.78 238.5,344.5 Z"/></g>
<g><path style="opacity:1" fill="#e8a491" d="M 502.5,344.5 C 497.407,349.119 491.407,352.452 484.5,354.5C 487.373,351.47 490.707,348.97 494.5,347C 496.927,345.409 499.593,344.575 502.5,344.5 Z"/></g>
<g><path style="opacity:1" fill="#eabdb1" d="M 484.5,354.5 C 478.075,358.888 471.408,363.055 464.5,367C 463.207,367.49 461.873,367.657 460.5,367.5C 466.934,363.108 473.601,358.941 480.5,355C 481.793,354.51 483.127,354.343 484.5,354.5 Z"/></g>
<g><path style="opacity:1" fill="#e8a896" d="M 452.5,371.5 C 449.394,374.226 445.727,376.226 441.5,377.5C 444.152,373.891 447.819,371.891 452.5,371.5 Z"/></g>
<g><path style="opacity:1" fill="#e8a693" d="M 437.5,379.5 C 434.992,381.924 431.992,383.59 428.5,384.5C 429.642,382.567 431.308,381.067 433.5,380C 434.793,379.51 436.127,379.343 437.5,379.5 Z"/></g>
<g><path style="opacity:1" fill="#e8a28e" d="M 415.5,390.5 C 411.365,394.785 406.365,397.785 400.5,399.5C 401.642,397.567 403.308,396.067 405.5,395C 408.488,392.874 411.821,391.374 415.5,390.5 Z"/></g>
<g><path style="opacity:1" fill="#e06946" d="M 307.5,398.5 C 314.073,398.722 318.407,402.055 320.5,408.5C 317.222,407.191 314.222,405.358 311.5,403C 309.959,401.629 308.625,400.129 307.5,398.5 Z"/></g>
<g><path style="opacity:1" fill="#eab8aa" d="M 385.5,407.5 C 383.531,409.159 381.531,410.825 379.5,412.5C 373.67,414.259 368.003,416.259 362.5,418.5C 369.541,413.442 377.208,409.776 385.5,407.5 Z"/></g>
</svg>
