<?xml version="1.0" encoding="UTF-8"?>
<!DOCTYPE svg PUBLIC "-//W3C//DTD SVG 1.1//EN" "http://www.w3.org/Graphics/SVG/1.1/DTD/svg11.dtd">
<svg xmlns="http://www.w3.org/2000/svg" version="1.1" width="750px" height="750px" style="shape-rendering:geometricPrecision; text-rendering:geometricPrecision; image-rendering:optimizeQuality; fill-rule:evenodd; clip-rule:evenodd" xmlns:xlink="http://www.w3.org/1999/xlink">
<g><path style="opacity:0.984" fill="#91573c" d="M 418.5,187.5 C 417.849,188.091 417.182,188.757 416.5,189.5C 415.388,196.163 415.388,202.83 416.5,209.5C 407.232,194.055 395.232,180.888 380.5,170C 373.167,165.333 365.833,160.667 358.5,156C 357.117,154.729 356.117,153.229 355.5,151.5C 361.668,131.162 371.501,112.829 385,96.5C 400.92,80.5952 419.086,67.7619 439.5,58C 459.393,53.863 473.559,61.0296 482,79.5C 486.376,94.8345 482.876,108.001 471.5,119C 456.906,127.253 443.739,137.42 432,149.5C 428.923,156.652 425.59,163.652 422,170.5C 420.383,176.086 419.216,181.753 418.5,187.5 Z"/></g>
<g><path style="opacity:0.995" fill="#6a913d" d="M 355.5,151.5 C 356.117,153.229 357.117,154.729 358.5,156C 365.833,160.667 373.167,165.333 380.5,170C 395.232,180.888 407.232,194.055 416.5,209.5C 419.572,221.868 415.572,231.368 404.5,238C 397.417,239.491 390.25,240.324 383,240.5C 359.634,240.318 336.468,238.152 313.5,234C 292.462,228.604 276.296,216.77 265,198.5C 263.887,197.695 262.721,197.028 261.5,196.5C 253.311,172.88 259.978,155.046 281.5,143C 307.812,132.033 332.478,134.866 355.5,151.5 Z"/></g>
<g><path style="opacity:0.997" fill="#eab850" d="M 418.5,187.5 C 445.364,186.897 471.697,191.064 497.5,200C 542.034,217.249 582.034,241.583 617.5,273C 621.416,276.41 624.749,280.243 627.5,284.5C 623.97,295.57 619.303,306.236 613.5,316.5C 608.457,325.474 602.957,334.141 597,342.5C 595.903,346.935 593.569,350.602 590,353.5C 578.709,372.018 565.709,389.351 551,405.5C 550,407.5 549,409.5 548,411.5C 534.454,427.309 520.287,442.809 505.5,458C 496.565,464.781 488.565,472.447 481.5,481C 438.924,519.568 392.924,553.568 343.5,583C 322.772,594.08 301.772,604.413 280.5,614C 271.869,617.21 263.202,620.21 254.5,623C 235.614,627.478 216.614,631.645 197.5,635.5C 195.229,634.319 193.563,634.653 192.5,636.5C 188.236,630.401 183.069,625.068 177,620.5C 170.482,611.477 163.482,602.811 156,594.5C 149.237,582.539 142.07,571.372 134.5,561C 133.773,559.601 133.273,558.101 133,556.5C 113.438,520.826 98.7711,483.159 89,443.5C 84.1906,414.691 82.1906,385.691 83,356.5C 87.5437,325.573 101.377,299.74 124.5,279C 131.779,273.054 138.446,266.388 144.5,259C 161.079,247.265 178.079,236.099 195.5,225.5C 196.313,224.186 197.313,223.019 198.5,222C 219.038,212.399 240.038,203.899 261.5,196.5C 262.721,197.028 263.887,197.695 265,198.5C 276.296,216.77 292.462,228.604 313.5,234C 336.468,238.152 359.634,240.318 383,240.5C 390.25,240.324 397.417,239.491 404.5,238C 415.572,231.368 419.572,221.868 416.5,209.5C 415.388,202.83 415.388,196.163 416.5,189.5C 417.182,188.757 417.849,188.091 418.5,187.5 Z"/></g>
<g><path style="opacity:0.004" fill="#000000" d="M 97.5,214.5 C 98.8333,215.167 98.8333,215.167 97.5,214.5 Z"/></g>
<g><path style="opacity:0.994" fill="#e9ab4c" d="M 627.5,284.5 C 644.58,299.296 655.246,317.963 659.5,340.5C 661.942,340.354 662.609,341.187 661.5,343C 663.365,347.291 664.531,351.791 665,356.5C 666.877,428 649.877,494.333 614,555.5C 603.92,575.319 591.587,593.652 577,610.5C 573.937,614.569 571.27,618.902 569,623.5C 563.504,628.63 558.337,634.13 553.5,640C 544.382,646.879 535.715,654.212 527.5,662C 515.018,670.079 502.018,677.412 488.5,684C 479.348,687.218 470.014,689.718 460.5,691.5C 442.396,691.996 424.396,693.33 406.5,695.5C 384.167,694.167 361.833,694.167 339.5,695.5C 332.954,695.878 326.621,695.045 320.5,693C 299.815,694.277 279.815,691.277 260.5,684C 247.656,677.749 235.323,670.749 223.5,663C 221.975,661.991 220.308,661.491 218.5,661.5C 218.607,659.097 217.607,657.264 215.5,656C 207.349,650.011 199.682,643.511 192.5,636.5C 193.563,634.653 195.229,634.319 197.5,635.5C 216.614,631.645 235.614,627.478 254.5,623C 263.202,620.21 271.869,617.21 280.5,614C 301.772,604.413 322.772,594.08 343.5,583C 392.924,553.568 438.924,519.568 481.5,481C 488.565,472.447 496.565,464.781 505.5,458C 520.287,442.809 534.454,427.309 548,411.5C 549,409.5 550,407.5 551,405.5C 565.709,389.351 578.709,372.018 590,353.5C 593.569,350.602 595.903,346.935 597,342.5C 602.957,334.141 608.457,325.474 613.5,316.5C 619.303,306.236 623.97,295.57 627.5,284.5 Z"/></g>
<g><path style="opacity:0.004" fill="#fe0000" d="M 173.5,634.5 C 174.833,635.167 174.833,635.167 173.5,634.5 Z"/></g>
</svg>
